<svg xmlns="http://www.w3.org/2000/svg" width="598.92" height="602.914" viewBox="0 0 598.92 602.914">
    <defs>
        <style>
            .cls-1{fill:#f7f8ff}.cls-2{fill:#eceff8}.cls-3,.cls-4{fill:#eff0fa}.cls-4{opacity:.623}.cls-5{fill:#fff}.cls-6{fill:#6b7098}.cls-7{fill:#b1b8d6}.cls-8{fill:#f6f7ff}.cls-9{fill:#2e3039}.cls-10{fill:#373b4b}.cls-11{fill:#a6aabc}.cls-12,.cls-13{fill:#f2f3fc}.cls-13{opacity:.355}.cls-14{filter:url(#Ellipse_166)}
        </style>
        <filter id="Ellipse_166" width="487" height="487" x="85.42" y="87.576" filterUnits="userSpaceOnUse">
            <feOffset dx="30" dy="30"/>
            <feGaussianBlur result="blur" stdDeviation="35"/>
            <feFlood flood-color="#e5e7fc"/>
            <feComposite in2="blur" operator="in"/>
            <feComposite in="SourceGraphic"/>
        </filter>
    </defs>
    <g id="moon" transform="translate(-751.58 -106.424)">
        <path id="Path_370" d="M3127.731 4322.543c-125.017-39.371-288.878-32.424-311.535 51.815s-132.687 115.593-80.92 233.146 65.151 292.577 210.69 293.3 343.383 28.29 343.54-184.459-36.758-354.43-161.775-393.802z" class="cls-1" data-name="Path 370" transform="translate(-1970 -4193)"/>
        <path id="Path_377" d="M413.6 317.936l-7.823-1.922a1.05 1.05 0 0 0-.95.238l-6.017 5.355a1.578 1.578 0 0 1-2.624-1.063l-.59-8.034a1.051 1.051 0 0 0-.518-.829l-6.954-4.069a1.578 1.578 0 0 1 .2-2.822l7.459-3.045a1.058 1.058 0 0 0 .629-.75l1.72-7.869a1.579 1.579 0 0 1 2.748-.683l5.2 6.153a1.049 1.049 0 0 0 .907.367l8.018-.8a1.577 1.577 0 0 1 1.5 2.4l-4.244 6.849a1.052 1.052 0 0 0-.069.976l3.234 7.378a1.579 1.579 0 0 1-1.826 2.17z" class="cls-2" data-name="Path 377" transform="translate(470.881 -14.827)"/>
        <path id="Path_378" d="M427.839 332.066l-12.066-2.966a1.619 1.619 0 0 0-1.465.366l-9.281 8.259a2.435 2.435 0 0 1-4.047-1.64l-.91-12.392a1.62 1.62 0 0 0-.8-1.279l-10.726-6.276a2.434 2.434 0 0 1 .309-4.353l11.5-4.7a1.631 1.631 0 0 0 .97-1.156l2.653-12.137a2.436 2.436 0 0 1 4.238-1.053l8.019 9.49a1.617 1.617 0 0 0 1.4.567L430 301.573a2.432 2.432 0 0 1 2.307 3.7l-6.545 10.563a1.622 1.622 0 0 0-.106 1.505l4.988 11.378a2.435 2.435 0 0 1-2.805 3.347z" class="cls-2" data-name="Path 378" transform="rotate(51.98 888.378 1177.245)"/>
        <path id="Path_379" d="M452.069 356.11l-19.285-4.739a2.587 2.587 0 0 0-2.342.586l-14.834 13.2a3.891 3.891 0 0 1-6.468-2.621l-1.454-19.806a2.59 2.59 0 0 0-1.276-2.044l-17.144-10.031a3.89 3.89 0 0 1 .494-6.957l18.388-7.506a2.607 2.607 0 0 0 1.551-1.848l4.24-19.4a3.893 3.893 0 0 1 6.774-1.683l12.817 15.168a2.585 2.585 0 0 0 2.237.906l19.765-1.962a3.887 3.887 0 0 1 3.687 5.919l-10.461 16.883a2.593 2.593 0 0 0-.169 2.406l7.973 18.187a3.892 3.892 0 0 1-4.493 5.342z" class="cls-2" data-name="Path 379" transform="rotate(51.98 606.96 1211.087)"/>
        <path id="Path_380" d="M443.377 347.484l-16.695-4.1a2.24 2.24 0 0 0-2.027.507l-12.842 11.428a3.369 3.369 0 0 1-5.6-2.269l-1.258-17.15a2.242 2.242 0 0 0-1.105-1.77l-14.841-8.684a3.367 3.367 0 0 1 .428-6.023l15.919-6.5a2.257 2.257 0 0 0 1.342-1.6l3.671-16.794a3.37 3.37 0 0 1 5.865-1.457l11.1 13.131a2.238 2.238 0 0 0 1.936.784l17.111-1.7a3.365 3.365 0 0 1 3.192 5.124l-9.056 14.616a2.244 2.244 0 0 0-.147 2.083l6.9 15.744a3.369 3.369 0 0 1-3.893 4.63z" class="cls-2" data-name="Path 380" transform="rotate(51.98 321.541 994.928)"/>
        <path id="Path_385" d="M469.853 346.269a12.637 12.637 0 0 0-6.353-3.769c-5.183-1.22-11.75.5-11.75.5 1.519-13.213-9.536-25.238-26.372-17.7a15.532 15.532 0 0 1-12.687-.077c-7.321-3.285-19.474-5.913-27.988 6.787-2.863 4.271-2.066 9.023-7.2 9.24-11.733.5-27.84 1.321-21.75 20.362a2.716 2.716 0 0 1 .043 1.441c-.428-.026-.857-.053-1.293-.053-9.389 0-17 6.156-17 13.75 0 6.116 4.941 11.294 11.768 13.08a15.529 15.529 0 0 1 1.132 1.61c2.4 3.944 11.218 15.324 28.586 5.139.228-.134.465-.247.7-.369 1.476 1.947 4.556 3.29 8.128 3.29a10.955 10.955 0 0 0 7.559-2.637 18.935 18.935 0 0 0 7.815 1.637c8.146 0 14.75-4.757 14.75-10.625 0-.043-.008-.085-.009-.128 3.572 3.793 11.039 4.932 18.59 2.411 8.643-2.885 14.323-9.539 13.364-15.319a15.525 15.525 0 0 1 4.351-1.495c8.127-1.492 19.731-5.582 19.615-16.777a15.279 15.279 0 0 0-3.999-10.298z" class="cls-3" data-name="Path 385" transform="rotate(25.97 387.268 1602.655)"/>
        <path id="Path_387" d="M567.992 363.882a22.007 22.007 0 0 0-11.064-6.564c-9.026-2.125-20.463.871-20.463.871 2.645-23.01-16.607-43.952-45.927-30.825a27.049 27.049 0 0 1-22.094-.134c-12.75-5.721-33.914-10.3-48.741 11.82-4.986 7.438-3.6 15.714-12.544 16.091-20.433.864-48.483 2.3-37.878 35.46a4.73 4.73 0 0 1 .075 2.51c-.745-.045-1.492-.092-2.252-.092-16.351 0-29.605 10.721-29.605 23.946 0 10.651 8.6 19.668 20.494 22.779a27.042 27.042 0 0 1 1.971 2.8c4.174 6.868 19.536 26.687 49.782 8.95.4-.233.81-.43 1.216-.643 2.57 3.391 7.934 5.73 14.155 5.73 5.5 0 10.337-1.827 13.164-4.592a32.976 32.976 0 0 0 13.61 2.851c14.186 0 25.687-8.284 25.687-18.5 0-.075-.014-.148-.016-.223 6.221 6.605 19.224 8.589 32.374 4.2 15.052-5.024 24.943-16.612 23.273-26.678a27.037 27.037 0 0 1 7.577-2.6c14.153-2.6 34.362-9.721 34.159-29.217a26.609 26.609 0 0 0-6.953-17.94z" class="cls-4" data-name="Path 387" transform="rotate(-3 -2622.156 -7924.295)"/>
        <path id="Path_386" d="M450.99 342.884a10.836 10.836 0 0 0-5.448-3.232c-4.444-1.046-10.075.429-10.075.429 1.3-11.33-8.177-21.641-22.613-15.177a13.318 13.318 0 0 1-10.879-.066c-6.278-2.817-16.7-5.07-24 5.82-2.455 3.662-1.772 7.737-6.176 7.923-10.061.425-23.872 1.133-18.65 17.46a2.329 2.329 0 0 1 .037 1.236c-.367-.022-.735-.045-1.109-.045-8.051 0-14.577 5.279-14.577 11.79 0 5.244 4.237 9.684 10.091 11.216a13.312 13.312 0 0 1 .971 1.381c2.055 3.382 9.619 13.14 24.512 4.407.2-.115.4-.212.6-.316 1.266 1.67 3.907 2.821 6.97 2.821a9.394 9.394 0 0 0 6.482-2.261 16.236 16.236 0 0 0 6.7 1.4c6.985 0 12.648-4.079 12.648-9.111 0-.037-.007-.073-.008-.11 3.063 3.252 9.466 4.229 15.941 2.067 7.411-2.474 12.282-8.179 11.459-13.136a13.312 13.312 0 0 1 3.734-1.28c6.969-1.279 16.919-4.786 16.819-14.386a13.1 13.1 0 0 0-3.429-8.83z" class="cls-3" data-name="Path 386" transform="rotate(-31 1034.499 -678.858)"/>
        <g id="moon-2" data-name="moon">
            <g class="cls-14" transform="translate(751.58 106.42)">
                <circle id="Ellipse_166-2" cx="138.5" cy="138.5" r="138.5" class="cls-5" data-name="Ellipse 166" transform="translate(160.42 162.58)"/>
            </g>
            <g id="Group_430" data-name="Group 430" transform="translate(13.744 1.822)">
                <path id="Path_374" d="M400.645 331.25a.972.972 0 0 0-.8.437c-2.63 3.89-7.645 6.52-13.4 6.52s-10.774-2.63-13.4-6.52a.972.972 0 0 0-.8-.437h-.151a.958.958 0 0 0-.788 1.5c2.956 4.412 8.63 7.4 15.146 7.4s12.189-2.986 15.146-7.4a.958.958 0 0 0-.788-1.5z" class="cls-6" data-name="Path 374" transform="translate(683.715 44.605)"/>
                <path id="Path_375" d="M372.233 331.25a.972.972 0 0 1 .8.437c2.63 3.89 7.645 6.52 13.4 6.52s10.774-2.63 13.4-6.52a.972.972 0 0 1 .8-.437h.151a.958.958 0 0 1 .788 1.5c-2.956 4.412-8.63 7.4-15.146 7.4s-12.189-2.986-15.146-7.4a.958.958 0 0 1 .788-1.5z" class="cls-6" data-name="Path 375" transform="translate(617.409 44.605)"/>
            </g>
            <path id="Path_376" d="M400.335 331.25a.962.962 0 0 0-.794.433c-2.6 3.849-7.565 6.451-13.263 6.451s-10.661-2.6-13.263-6.451a.962.962 0 0 0-.794-.433h-.15a.948.948 0 0 0-.78 1.483c2.925 4.365 8.539 7.32 14.987 7.32s12.062-2.954 14.987-7.32a.948.948 0 0 0-.78-1.483z" class="cls-7" data-name="Path 376" transform="translate(663.346 76.474)"/>
            <ellipse id="Ellipse_167" cx="10.833" cy="5.056" class="cls-8" data-name="Ellipse 167" rx="10.833" ry="5.056" transform="translate(1081.333 396.5)"/>
            <ellipse id="Ellipse_168" cx="10.833" cy="5.056" class="cls-8" data-name="Ellipse 168" rx="10.833" ry="5.056" transform="translate(999 399.389)"/>
            <path id="Path_382" d="M542.371 345.3a7.931 7.931 0 0 0-4.656 1.31c-15.258 11.653-44.35 19.532-77.757 19.532s-62.5-7.879-77.756-19.532a7.933 7.933 0 0 0-4.658-1.31h-.879c-4.468 0-7.057 2.574-4.57 4.491 17.15 13.217 50.062 22.163 87.863 22.163s70.714-8.946 87.864-22.163c2.487-1.917-.1-4.491-4.571-4.491z" class="cls-9" data-name="Path 382" transform="rotate(16 926.86 2530.575)"/>
            <path id="Path_383" d="M2969 4470.055s-6.811-27.31 97.416-39.649 149.832 133.075 132.456 133.016c-12.25-.042-4.322-31.244-18.783-41.626-14.263-9.371-23.215-9.379-48.138-2.523-44.184 12.154-91.3.8-122.021-15.448-27.652-14.625-40.93-33.77-40.93-33.77z" class="cls-10" data-name="Path 383" transform="translate(-1970 -4193)"/>
            <circle id="Ellipse_169" cx="10" cy="10" r="10" class="cls-11" data-name="Ellipse 169" transform="translate(1220 364)"/>
        </g>
        <path id="Path_384" d="M469.853 346.269a12.637 12.637 0 0 0-6.353-3.769c-5.183-1.22-11.75.5-11.75.5 1.519-13.213-9.536-25.238-26.372-17.7a15.532 15.532 0 0 1-12.687-.077c-7.321-3.285-19.474-5.913-27.988 6.787-2.863 4.271-2.066 9.023-7.2 9.24-11.733.5-27.84 1.321-21.75 20.362a2.716 2.716 0 0 1 .043 1.441c-.428-.026-.857-.053-1.293-.053-9.389 0-17 6.156-17 13.75 0 6.116 4.941 11.294 11.768 13.08a15.529 15.529 0 0 1 1.132 1.61c2.4 3.944 11.218 15.324 28.586 5.139.228-.134.465-.247.7-.369 1.476 1.947 4.556 3.29 8.128 3.29a10.955 10.955 0 0 0 7.559-2.637 18.935 18.935 0 0 0 7.815 1.637c8.146 0 14.75-4.757 14.75-10.625 0-.043-.008-.085-.009-.128 3.572 3.793 11.039 4.932 18.59 2.411 8.643-2.885 14.323-9.539 13.364-15.319a15.525 15.525 0 0 1 4.351-1.495c8.127-1.492 19.731-5.582 19.615-16.777a15.279 15.279 0 0 0-3.999-10.298z" class="cls-12" data-name="Path 384" transform="translate(715.5 155.484)"/>
        <path id="Path_388" d="M551.687 360.955a20.451 20.451 0 0 0-10.281-6.1c-8.388-1.974-19.015.809-19.015.809 2.458-21.383-15.432-40.843-42.678-28.644a25.135 25.135 0 0 1-20.531-.125c-11.848-5.316-31.515-9.569-45.293 10.983-4.633 6.912-3.343 14.6-11.657 14.953-18.988.8-45.054 2.138-35.2 32.952a4.4 4.4 0 0 1 .07 2.332c-.693-.042-1.387-.086-2.092-.086-15.194 0-27.511 9.962-27.511 22.252 0 9.9 8 18.277 19.044 21.167a25.133 25.133 0 0 1 1.832 2.605c3.879 6.383 18.154 24.8 46.261 8.316.369-.217.753-.4 1.13-.6 2.389 3.151 7.373 5.324 13.154 5.324 5.112 0 9.606-1.7 12.233-4.267a30.642 30.642 0 0 0 12.647 2.649c13.183 0 23.87-7.7 23.87-17.194 0-.07-.013-.138-.015-.207 5.781 6.138 17.864 7.981 30.084 3.9 13.987-4.669 23.179-15.437 21.627-24.791a25.125 25.125 0 0 1 7.041-2.419c13.152-2.415 31.931-9.033 31.743-27.15a24.727 24.727 0 0 0-6.463-16.659z" class="cls-13" data-name="Path 388" transform="translate(792.348 249.311)"/>
    </g>
</svg>
