<svg xmlns="http://www.w3.org/2000/svg" width="45.543" height="45.543" viewBox="0 0 45.543 45.543">
    <defs>
        <style>
            .cls-1{fill:url(#linear-gradient)}
        </style>
        <linearGradient id="linear-gradient" x1=".568" x2=".5" y1=".043" y2="1" gradientUnits="objectBoundingBox">
            <stop offset="0" stop-color="#18c7c1" stop-opacity=".718"/>
            <stop offset="1" stop-color="#7df0da" stop-opacity=".871"/>
        </linearGradient>
    </defs>
    <path id="square-icon-sm" d="M-447.616-1806.951l-6.515.685-1.054-10.032-4.415-5.452 3.54-2.867-.685-6.514 10.031-1.054 5.452-4.415 2.867 3.541 6.515-.685 1.054 10.032 4.413 5.45-3.539 2.866.684 6.514-10.031 1.054-5.451 4.414zm3.079 1.516l2.611-2.114-3.984.419zm-8.238-2.506l4.015-.422-4.664-5.76zm5.721-.6l7.3-.768 8.208-6.647-.768-7.3-6.647-8.208-7.3.768-8.208 6.646.767 7.3zm9.931-1.044l6.182-.65-.422-4.014zm6.993-7.515l1.7-1.373-2.114-2.61zm-27.446-4.436l2.115 2.611-.419-3.984zm2.507-8.238l.422 4.013 5.758-4.663zm22.482 3.887l-.65-6.182-4.015.422zm-11.5-6.574l3.985-.419-1.373-1.7z" class="cls-1" transform="rotate(59 -1838.666 -486.988)"/>
</svg>
